#Comment line ignore any data following # character
#Hierarchical Translation and Rotation (.htr) file
[Header]		#Header keywords are followed by a single value
FileType htr		#Single word string
DataType HTRS		#Translation followed by rotation and scale data
FileVersion 1		#integer
NumSegments 18		#integer
NumFrames 8		#integer
DataFrameRate 60		#integer, data frame rate in this file
EulerRotationOrder ZYX
CalibrationUnits mm
RotationUnits Degrees
GlobalAxisofGravity Y
BoneLengthAxis Y
ScaleFactor 1.000000
[SegmentNames&Hierarchy]
#CHILD	PARENT
Head	Neck
Neck	Chest
Chest	Hips
LeftShoulder	LeftCollar
RightShoulder	RightCollar
LeftElbow	LeftShoulder
RightElbow	RightShoulder
LeftWrist	LeftElbow
RightWrist	RightElbow
Hips	GLOBAL
LeftHip	Hips
RightHip	Hips
LeftKnee	LeftHip
RightKnee	RightHip
LeftAnkle	LeftKnee
RightAnkle	RightKnee
LeftCollar	Chest
RightCollar	Chest
[BasePosition]
#SegmentName Tx, Ty, Tz, Rx, Ry, Rz, BoneLength
Head	0.000003	141.966248	0.000002	-37.745777	-8.179454	6.203664	80.000046
Neck	0.000000	379.566772	0.000000	32.855431	-5.194619	1.823337	141.966263
Chest	0.000000	94.891693	0.000000	0.000002	12.877405	-0.000012	379.566803
LeftShoulder	0.000003	154.023666	0.000005	171.957962	-79.977570	-157.094910	215.219986
RightShoulder	-0.000001	146.408707	-0.000001	20.020029	60.865143	-8.207462	240.139038
LeftElbow	0.000007	215.219971	-0.000011	-24.162848	54.442085	-17.491318	336.440125
RightElbow	-0.000021	240.139038	0.000007	-21.925606	-43.617706	23.102211	322.101532
LeftWrist	-0.000014	336.440094	0.000002	173.178864	-0.531422	156.628021	100.348160
RightWrist	0.000005	322.101501	0.000026	1.868945	1.747480	14.125610	109.739998
Hips	377.886597	1077.530640	704.474976	-179.011169	36.455761	-178.006714	94.891701
LeftHip	95.336761	5.238981	-8.336124	-0.485735	-9.415434	-176.117065	525.916443
RightHip	-96.119095	-4.691877	-4.857316	2.457280	-1.423929	-179.125565	528.302429
LeftKnee	0.000004	525.916443	0.000001	-10.646533	-14.541370	-1.855900	514.711975
RightKnee	-0.000002	528.302429	0.000004	-12.768950	2.118825	-3.063609	521.764099
LeftAnkle	0.000003	514.711975	0.000009	97.965164	-0.000001	0.000000	253.446518
RightAnkle	0.000001	521.764099	-0.000002	99.242271	0.000002	0.000000	256.283173
LeftCollar	19.999998	366.483276	-15.126845	169.660507	-4.312743	90.901894	154.023682
RightCollar	-19.999996	366.483215	-15.126822	171.369568	4.171492	-91.645760	146.408707
#Beginning of Data. Separated by tabs
[Head]
#Fr	Tx	Ty	Tz	Rx	Ry	Rz	SF
129	0.000002	9.037888	-0.000000	-11.034060	-18.404596	11.389352	0.999999
130	-0.000004	9.101822	0.000011	-11.065139	-18.689589	11.513510	0.999999
131	-0.000003	9.551849	0.000007	-11.466949	-18.793287	11.533244	0.999999
132	-0.000000	9.952515	-0.000003	-11.864497	-18.812183	11.723366	0.999999
133	0.000002	9.855194	0.000006	-11.812559	-18.912720	11.977661	1.000000
134	0.000002	10.178513	0.000019	-11.993681	-18.905418	11.906900	0.999999
135	-0.000003	10.169189	0.000004	-11.979526	-18.884806	12.157866	1.000000
136	0.000000	10.314621	0.000006	-12.100009	-18.775625	12.458229	1.000000
[Neck]
#Fr	Tx	Ty	Tz	Rx	Ry	Rz	SF
129	-0.000005	-13.077148	-0.000006	-1.944294	-4.350268	-2.953276	1.063662
130	0.000001	-13.094757	-0.000007	-2.165658	-4.426713	-2.997730	1.064112
131	-0.000009	-13.126770	-0.000000	-2.264047	-4.480924	-2.902745	1.067282
132	0.000007	-13.210022	-0.000014	-2.302110	-4.516069	-2.911235	1.070105
133	-0.000004	-13.312317	-0.000006	-2.475313	-4.520391	-3.130475	1.069419
134	-0.000002	-13.302032	-0.000008	-2.609373	-4.546319	-3.033827	1.071696
135	0.000004	-13.264221	0.000006	-2.740719	-4.576028	-3.163084	1.071631
136	0.000008	-13.303497	0.000011	-2.873522	-4.608898	-3.256345	1.072655
[Chest]
#Fr	Tx	Ty	Tz	Rx	Ry	Rz	SF
129	0.000001	-3.269310	-0.000002	-0.000029	3.584136	0.000014	0.965547
130	-0.000000	-3.273651	0.000000	-0.000017	3.498306	0.000009	0.965501
131	-0.000001	-3.281754	-0.000000	0.000001	3.577140	0.000020	0.965416
132	0.000000	-3.302536	-0.000001	-0.000011	3.693088	0.000017	0.965197
133	-0.000000	-3.328117	0.000001	0.000008	3.747296	0.000020	0.964928
134	0.000001	-3.325447	0.000000	0.000009	3.940066	0.000007	0.964955
135	0.000000	-3.316063	0.000000	0.000005	4.059595	0.000009	0.965054
136	0.000001	-3.325859	0.000001	-0.000022	4.134940	0.000013	0.964951
[LeftShoulder]
#Fr	Tx	Ty	Tz	Rx	Ry	Rz	SF
129	-0.000004	12.074234	-0.000010	46.169930	16.486338	21.173277	1.212780
130	0.000001	12.282715	0.000000	46.031460	16.384327	19.034832	1.210600
131	0.000007	12.467224	0.000000	45.942364	16.285479	16.889778	1.208694
132	0.000012	12.702148	-0.000002	45.880760	16.192520	14.774265	1.207097
133	-0.000011	12.956009	-0.000009	45.865139	16.037125	12.656648	1.205770
134	0.000001	13.235443	0.000004	45.889057	15.807917	10.520772	1.204820
135	0.000002	13.500214	0.000001	45.956020	15.487820	8.386368	1.204316
136	0.000002	13.684921	-0.000003	46.028381	15.114157	6.279042	1.204101
[RightShoulder]
#Fr	Tx	Ty	Tz	Rx	Ry	Rz	SF
129	0.000006	9.751862	-0.000008	55.696339	-59.129807	-93.042488	1.043868
130	0.000004	10.047180	-0.000011	54.975594	-58.805546	-90.730949	1.045438
131	-0.000000	10.371887	-0.000006	54.362366	-58.381355	-88.431396	1.047768
132	-0.000000	10.647766	-0.000002	53.913666	-57.899311	-86.268509	1.051031
133	0.000000	10.948837	0.000001	53.710266	-57.399651	-84.369675	1.055039
134	0.000001	11.189743	0.000001	53.713043	-56.878189	-82.738029	1.059667
135	-0.000004	11.402390	-0.000002	53.881142	-56.336628	-81.366119	1.064912
136	0.000002	11.570313	0.000000	54.246326	-55.774551	-80.307556	1.070666
[LeftElbow]
#Fr	Tx	Ty	Tz	Rx	Ry	Rz	SF
129	-0.000026	45.794464	0.000014	-103.279373	-47.159458	113.623589	0.798085
130	-0.000005	45.325409	0.000018	-104.504364	-48.406925	115.293114	0.801618
131	0.000023	44.915100	0.000017	-105.512688	-49.676369	116.587280	0.805865
132	-0.000003	44.571442	0.000003	-106.423866	-50.979095	117.713493	0.810323
133	-0.000008	44.285858	0.000014	-105.463715	-53.179680	116.236259	0.814110
134	-0.000001	44.081299	0.000010	-103.408249	-55.694851	113.436974	0.818214
135	0.000018	43.972931	0.000021	-101.076904	-58.089783	110.485023	0.823413
136	-0.000003	43.926666	0.000016	-98.472374	-60.370613	107.387642	0.829373
[RightElbow]
#Fr	Tx	Ty	Tz	Rx	Ry	Rz	SF
129	0.000022	10.534317	-0.000006	-65.354248	46.434166	16.562450	0.806477
130	0.000019	10.911499	-0.000007	-62.595478	45.496128	16.937639	0.803412
131	0.000013	11.470978	-0.000028	-59.313354	44.301857	17.504267	0.801436
132	0.000012	12.254639	0.000002	-55.717400	42.863098	18.022306	0.800972
133	0.000024	13.217102	-0.000006	-51.766624	41.113121	18.589247	0.802415
134	0.000020	14.328354	-0.000028	-47.512257	38.991264	19.201921	0.805653
135	0.000017	15.587830	0.000003	-43.285816	36.610992	19.542976	0.811056
136	0.000043	16.969666	0.000014	-39.069637	33.922779	19.742130	0.818396
[LeftWrist]
#Fr	Tx	Ty	Tz	Rx	Ry	Rz	SF
129	0.000009	-67.932312	0.000026	-55.287270	-72.632866	16.777075	1.002497
130	0.000014	-66.743500	0.000011	-57.119164	-71.847702	18.810585	0.994374
131	-0.000015	-65.314789	-0.000052	-58.505997	-71.445786	20.526537	0.985108
132	0.000006	-63.814941	-0.000032	-59.690052	-71.331940	22.233051	0.976344
133	0.000007	-62.540924	0.000001	-61.483551	-70.858505	23.142708	0.975385
134	0.000009	-61.160034	-0.000016	-63.295639	-70.396988	23.742683	0.976815
135	0.000013	-59.411102	0.000001	-64.641388	-70.035484	24.374348	0.977607
136	0.000002	-57.405640	-0.000004	-65.608055	-69.746124	25.107718	0.978886
[RightWrist]
#Fr	Tx	Ty	Tz	Rx	Ry	Rz	SF
129	-0.000047	-62.333893	-0.000011	-134.206787	85.427727	-122.754173	0.921427
130	-0.000032	-63.321136	-0.000022	-133.493912	85.128510	-121.974052	0.918811
131	0.000005	-63.957764	0.000008	-132.263092	84.785576	-120.813553	0.915399
132	-0.000003	-64.107300	-0.000038	-131.126404	84.391296	-119.776131	0.911773
133	0.000019	-63.642456	0.000002	-130.697861	84.085541	-119.434280	0.907984
134	0.000000	-62.599518	-0.000025	-129.703201	83.835632	-118.751793	0.904069
135	-0.000034	-60.859192	-0.000030	-128.715302	83.682808	-118.116707	0.900079
136	-0.000023	-58.494751	-0.000041	-127.494957	83.708839	-117.360764	0.896299
[Hips]
#Fr	Tx	Ty	Tz	Rx	Ry	Rz	SF
129	-1189.573730	22.887573	-567.490845	43.927551	-62.940746	-28.979685	0.965547
130	-1184.887451	23.249390	-570.849243	44.227612	-62.625347	-29.414343	0.965501
131	-1180.102295	23.521973	-574.448059	44.821224	-62.476315	-30.172779	0.965416
132	-1175.000610	23.696899	-578.122314	45.467953	-62.370243	-31.017433	0.965197
133	-1170.019653	23.813599	-582.190979	46.146713	-62.299603	-31.862848	0.964927
134	-1164.899780	23.708252	-586.111450	47.029213	-62.310387	-32.960308	0.964955
135	-1159.670654	23.472900	-590.262878	47.891376	-62.338238	-34.037842	0.965054
136	-1154.432373	23.201782	-594.843445	48.816616	-62.444473	-35.164749	0.964951
[LeftHip]
#Fr	Tx	Ty	Tz	Rx	Ry	Rz	SF
129	2.362236	6.086681	0.653232	31.207220	-3.486505	11.667910	0.998913
130	2.584625	6.484355	0.661566	31.124672	-3.268271	11.795054	0.998900
131	2.631958	7.057437	0.785961	31.004353	-3.168480	11.945160	0.999095
132	2.453232	7.540695	0.670451	30.865850	-3.091988	12.158522	0.999073
133	2.562035	8.063709	0.665399	30.787237	-2.954285	12.251653	0.999360
134	2.402008	8.538336	0.485478	30.616304	-2.924501	12.461029	0.999496
135	2.073372	8.975731	0.542893	30.438726	-2.880029	12.615393	0.999725
136	1.644852	9.451288	0.824549	30.238705	-2.857448	12.677667	1.000023
[RightHip]
#Fr	Tx	Ty	Tz	Rx	Ry	Rz	SF
129	-1.407692	-8.922775	1.518135	19.157146	-1.802878	8.257714	1.009324
130	-1.564201	-9.314915	1.228141	18.606798	-1.793925	8.460095	1.009036
131	-1.566025	-9.814398	1.252824	18.040632	-1.738690	8.705208	1.008496
132	-1.382477	-10.279510	1.164928	17.427099	-1.687127	8.941716	1.008056
133	-1.471245	-10.764227	1.168094	16.853577	-1.668002	9.124601	1.007662
134	-1.328400	-11.237047	1.157834	16.248943	-1.644662	9.349700	1.006937
135	-0.950653	-11.640272	1.012657	15.650412	-1.514321	9.511571	1.006236
136	-0.478378	-11.994734	1.106315	15.075123	-1.309078	9.582042	1.005339
[LeftKnee]
#Fr	Tx	Ty	Tz	Rx	Ry	Rz	SF
129	-0.000013	-0.571411	0.000015	-11.443668	21.519436	6.019381	0.975428
130	0.000013	-0.578430	0.000005	-11.726084	21.444719	6.098031	0.975796
131	-0.000012	-0.476135	-0.000010	-12.124971	21.321072	6.179685	0.976363
132	-0.000009	-0.487488	0.000005	-12.597814	21.138361	6.165878	0.977224
133	-0.000010	-0.336731	0.000030	-13.118588	20.888285	6.329724	0.978051
134	-0.000005	-0.264893	-0.000001	-13.619456	20.553200	6.398016	0.978409
135	-0.000017	-0.144470	0.000008	-14.146716	20.244751	6.510735	0.978803
136	0.000012	0.011841	0.000013	-14.648720	19.830761	6.715374	0.979282
[RightKnee]
#Fr	Tx	Ty	Tz	Rx	Ry	Rz	SF
129	-0.000005	4.926025	-0.000006	-6.640686	31.486025	0.818856	0.993886
130	0.000007	4.773743	0.000024	-5.941645	31.649445	1.025144	0.993979
131	0.000001	4.488647	0.000004	-5.264018	31.511337	1.208911	0.994061
132	-0.000006	4.255981	-0.000005	-4.579813	31.323906	1.389540	0.994010
133	-0.000003	4.047607	-0.000010	-3.900017	31.151031	1.611010	0.993859
134	0.000005	3.664612	-0.000014	-3.241246	30.853794	1.805728	0.993637
135	-0.000000	3.294373	-0.000004	-2.603122	30.412931	2.040246	0.993162
136	0.000005	2.820496	0.000009	-2.007694	29.799236	2.316048	0.992952
[LeftAnkle]
#Fr	Tx	Ty	Tz	Rx	Ry	Rz	SF
129	-0.000011	-12.647308	0.000043	-0.848949	-0.000000	-0.000001	1.025325
130	0.000011	-12.457855	-0.000005	-0.444535	-0.000000	-0.000001	1.025287
131	-0.000013	-12.166016	-0.000010	0.043755	-0.000001	-0.000001	1.025827
132	-0.000026	-11.723175	0.000019	0.536118	-0.000000	-0.000001	1.025821
133	-0.000029	-11.297455	0.000011	1.079641	-0.000001	-0.000001	1.025648
134	-0.000003	-11.113037	0.000000	1.586844	-0.000001	-0.000002	1.025542
135	-0.000010	-10.910156	0.000026	2.121207	-0.000000	-0.000001	1.026078
136	0.000005	-10.663849	0.000008	2.638572	-0.000000	0.000000	1.025699
[RightAnkle]
#Fr	Tx	Ty	Tz	Rx	Ry	Rz	SF
129	-0.000008	-3.189880	0.000024	2.280421	0.000001	0.000005	1.003286
130	-0.000018	-3.141357	0.000006	1.877300	-0.000000	0.000000	1.003623
131	0.000011	-3.099060	-0.000044	1.465778	0.000000	0.000004	1.003405
132	-0.000008	-3.125610	0.000012	1.067416	0.000001	0.000001	1.003749
133	0.000011	-3.204407	-0.000003	0.650494	0.000000	-0.000002	1.004229
134	-0.000003	-3.320068	0.000014	0.214316	0.000001	0.000001	1.004989
135	0.000032	-3.567566	-0.000030	-0.249317	-0.000000	-0.000001	1.005229
136	0.000011	-3.677124	0.000002	-0.711814	-0.000000	0.000000	1.005422
[LeftCollar]
#Fr	Tx	Ty	Tz	Rx	Ry	Rz	SF
129	-0.000010	-12.560791	-0.431631	0.163638	0.829877	10.953466	1.078392
130	0.000002	-12.552673	-0.452408	0.558616	0.864958	11.047697	1.079746
131	-0.000002	-12.558380	-0.473560	0.953339	0.906270	11.119855	1.080943
132	0.000013	-12.608276	-0.500304	1.323425	0.981504	11.156135	1.082469
133	0.000006	-12.686981	-0.519035	1.699911	1.023639	11.173882	1.084117
134	0.000015	-12.653534	-0.537465	1.991159	1.084324	11.110973	1.085931
135	0.000004	-12.593170	-0.555327	2.251601	1.149118	11.029858	1.087650
136	0.000029	-12.616516	-0.567976	2.490443	1.188045	10.976320	1.088849
[RightCollar]
#Fr	Tx	Ty	Tz	Rx	Ry	Rz	SF
129	-0.000015	-12.560760	-0.431672	-9.157759	-2.332955	-6.458499	1.066607
130	-0.000015	-12.552612	-0.452406	-9.163394	-2.419600	-6.395104	1.068624
131	-0.000015	-12.558228	-0.473628	-9.181946	-2.510199	-6.320927	1.070842
132	0.000008	-12.608215	-0.500298	-9.166575	-2.621603	-6.263469	1.072726
133	-0.000011	-12.686859	-0.519144	-9.184517	-2.701325	-6.165404	1.074783
134	-0.000008	-12.653412	-0.537493	-9.128799	-2.770010	-6.118117	1.076428
135	0.000010	-12.593201	-0.555338	-9.062936	-2.835352	-6.079681	1.077881
136	0.000011	-12.616425	-0.568007	-9.001419	-2.876653	-6.006052	1.079027
[EndOfFile]
